<svg width="24" height="20" viewBox="0 0 24 20" fill="none" xmlns="http://www.w3.org/2000/svg">
<path d="M1.71429 0.600006H10.2857C10.7404 0.600006 11.1764 0.802291 11.4979 1.16236C11.8194 1.52243 12 2.01079 12 2.52C12 3.02921 11.8194 3.51759 11.4979 3.87763C11.1764 4.23771 10.7404 4.44001 10.2857 4.44001H1.71429C1.25963 4.44001 0.823594 4.23771 0.502102 3.87763C0.180612 3.51759 0 3.02921 0 2.52C0 2.01079 0.180612 1.52243 0.502102 1.16236C0.823594 0.802291 1.25963 0.600006 1.71429 0.600006ZM13.7143 15.96H22.2857C22.7403 15.96 23.1765 16.1623 23.4979 16.5224C23.8193 16.8824 24 17.3708 24 17.88C24 18.3892 23.8193 18.8776 23.4979 19.2376C23.1765 19.5977 22.7403 19.8 22.2857 19.8H13.7143C13.2596 19.8 12.8236 19.5977 12.5021 19.2376C12.1806 18.8776 12 18.3892 12 17.88C12 17.3708 12.1806 16.8824 12.5021 16.5224C12.8236 16.1623 13.2596 15.96 13.7143 15.96ZM1.71429 8.27999H22.2857C22.7403 8.27999 23.1765 8.48228 23.4979 8.84236C23.8193 9.20244 24 9.69078 24 10.2C24 10.7092 23.8193 11.1976 23.4979 11.5576C23.1765 11.9177 22.7403 12.12 22.2857 12.12H1.71429C1.25963 12.12 0.823594 11.9177 0.502102 11.5576C0.180612 11.1976 0 10.7092 0 10.2C0 9.69078 0.180612 9.20244 0.502102 8.84236C0.823594 8.48228 1.25963 8.27999 1.71429 8.27999Z" fill="white"/>
</svg>
