<svg width="23" height="23" viewBox="0 0 23 23" fill="none" xmlns="http://www.w3.org/2000/svg">
<g clip-path="url(#clip0_2_7)">
<path d="M11.4998 0C5.15888 0 0 5.15888 0 11.5C0 17.8413 5.15888 23 11.4998 23C17.841 23 23 17.8413 23 11.5C22.9998 5.15888 17.8407 0 11.4998 0ZM11.4998 21.8657C5.78421 21.8657 1.13423 17.2158 1.13423 11.5C1.13423 5.78441 5.78421 1.13423 11.4998 1.13423C17.2154 1.13423 21.8657 5.78441 21.8657 11.5C21.8656 17.2158 17.2154 21.8657 11.4998 21.8657Z" fill="#A9A9A9"/>
<path d="M5.65875 9.06315H8.32003V16.0074H5.65875V9.06315Z" fill="#A9A9A9"/>
<path d="M6.96354 7.95498C7.70744 7.95498 8.31047 7.40485 8.31047 6.72624C8.31047 6.04762 7.70744 5.49749 6.96354 5.49749C6.21967 5.49749 5.61664 6.04762 5.61664 6.72624C5.61664 7.40485 6.21967 7.95498 6.96354 7.95498Z" fill="#A9A9A9"/>
<path d="M15.0097 8.90596C14.4647 8.90596 14.0029 9.00522 13.6233 9.20345C13.244 9.40197 12.8694 9.73202 12.4987 10.194V9.06286H10.0204V16.007H12.6817V12.6721C12.6817 12.04 12.782 11.6022 12.9826 11.358C13.1832 11.1139 13.4444 10.9918 13.7672 10.9918C14.0592 10.9918 14.2859 11.0823 14.4473 11.2632C14.6087 11.4442 14.6891 11.7525 14.6891 12.1886V16.007H17.3636V11.5935C17.3636 10.678 17.1553 10.0013 16.7388 9.56304C16.323 9.12482 15.7462 8.90596 15.0097 8.90596Z" fill="#A9A9A9"/>
</g>
<defs>
<clipPath id="clip0_2_7">
<rect width="23" height="23" fill="white"/>
</clipPath>
</defs>
</svg>
