<svg width="30" height="31" viewBox="0 0 30 31" fill="none" xmlns="http://www.w3.org/2000/svg">
<path d="M26.1975 19.6562C26.4525 19.0487 25.7238 18.5312 25.1125 18.8012C23.8907 19.3376 22.5706 19.6134 21.2363 19.6112C16.005 19.6112 11.765 15.4562 11.765 10.33C11.7631 8.59918 12.2548 6.90371 13.1825 5.4425C13.5375 4.8825 13.1112 4.1075 12.4612 4.2725C7.45 5.55125 3.75 10.0162 3.75 15.3275C3.75 21.6362 8.96875 26.75 15.4075 26.75C20.2825 26.75 24.4575 23.8187 26.1975 19.6562Z" fill="black"/>
<path d="M19.5138 4.37875C18.8513 3.93625 18.0613 4.72625 18.5025 5.38875L19.29 6.57C19.6095 7.04896 19.78 7.61178 19.78 8.1875C19.78 8.76322 19.6095 9.32605 19.29 9.805L18.5025 10.9863C18.0613 11.6488 18.8525 12.4388 19.515 11.9963L20.695 11.2088C21.174 10.8893 21.7368 10.7188 22.3125 10.7188C22.8882 10.7188 23.4511 10.8893 23.93 11.2088L25.1113 11.9963C25.7738 12.4388 26.5638 11.6488 26.1213 10.9863L25.3338 9.805C25.0143 9.32605 24.8438 8.76322 24.8438 8.1875C24.8438 7.61178 25.0143 7.04896 25.3338 6.57L26.1213 5.38875C26.5638 4.72625 25.7738 3.93625 25.11 4.37875L23.93 5.16625C23.4511 5.48571 22.8882 5.65619 22.3125 5.65619C21.7368 5.65619 21.174 5.48571 20.695 5.16625L19.5138 4.37875Z" fill="black"/>
</svg>
