<svg width="31" height="31" viewBox="0 0 31 31" fill="none" xmlns="http://www.w3.org/2000/svg">
<g clip-path="url(#clip0_104_502)">
<path d="M4.95096 24.5867H8.73444V15.2294L3.3295 11.1013V22.9354C3.3295 23.8491 4.05651 24.5867 4.95096 24.5867Z" fill="#4285F4"/>
<path d="M21.7065 24.5868H25.4901C26.3872 24.5868 27.1115 23.8464 27.1115 22.9356V11.1013L21.7065 15.2295" fill="#34A853"/>
<path d="M21.7065 8.07402V15.2296L27.1115 11.1015V8.89951C27.1115 6.85751 24.8225 5.69332 23.2199 6.91806" fill="#FBBC04"/>
<path d="M8.73456 15.2294V8.07397L15.2205 13.0276L21.7065 8.07373V15.2293L15.2205 20.1832" fill="#EA4335"/>
<path d="M3.3295 8.89951V11.1012L8.73444 15.2294V8.07402L7.22107 6.91806C5.61578 5.69332 3.3295 6.85751 3.3295 8.89951Z" fill="#C5221F"/>
</g>
<defs>
<clipPath id="clip0_104_502">
<rect width="30.441" height="31" fill="white"/>
</clipPath>
</defs>
</svg>
